<?xml version="1.0" encoding="utf-8" standalone="no"?>
<!DOCTYPE svg PUBLIC "-//W3C//DTD SVG 1.1//EN"
  "http://www.w3.org/Graphics/SVG/1.1/DTD/svg11.dtd">
<svg height="345.6pt" version="1.1" viewBox="0 0 460.8 345.6" width="460.8pt" xmlns="http://www.w3.org/2000/svg" xmlns:xlink="http://www.w3.org/1999/xlink">
 <metadata>
  <rdf:RDF xmlns:cc="http://creativecommons.org/ns#" xmlns:dc="http://purl.org/dc/elements/1.1/" xmlns:rdf="http://www.w3.org/1999/02/22-rdf-syntax-ns#">
   <cc:Work>
    <dc:type rdf:resource="http://purl.org/dc/dcmitype/StillImage"/>
    <dc:date>2021-12-15T11:26:53.852123</dc:date>
    <dc:format>image/svg+xml</dc:format>
    <dc:creator>
     <cc:Agent>
      <dc:title>Matplotlib v3.4.2, https://matplotlib.org/</dc:title>
     </cc:Agent>
    </dc:creator>
   </cc:Work>
  </rdf:RDF>
 </metadata>
 <defs>
  <style type="text/css">*{stroke-linecap:butt;stroke-linejoin:round;}</style>
 </defs>
 <g id="figure_1">
  <g id="patch_1">
   <path d="M 0 345.6 
L 460.8 345.6 
L 460.8 0 
L 0 0 
z
" style="fill:none;"/>
  </g>
  <g id="axes_1">
   <g id="PathCollection_1">
    <defs>
     <path d="M 0 3 
C 0.795609 3 1.55874 2.683901 2.12132 2.12132 
C 2.683901 1.55874 3 0.795609 3 0 
C 3 -0.795609 2.683901 -1.55874 2.12132 -2.12132 
C 1.55874 -2.683901 0.795609 -3 0 -3 
C -0.795609 -3 -1.55874 -2.683901 -2.12132 -2.12132 
C -2.683901 -1.55874 -3 -0.795609 -3 0 
C -3 0.795609 -2.683901 1.55874 -2.12132 2.12132 
C -1.55874 2.683901 -0.795609 3 0 3 
z
" id="m025f9f1c9a" style="stroke:#1f77b4;"/>
    </defs>
    <g clip-path="url(#p16af50ce55)">
     <use style="fill:#1f77b4;stroke:#1f77b4;" x="73.832727" xlink:href="#m025f9f1c9a" y="295.488"/>
    </g>
   </g>
   <g id="PathCollection_2">
    <defs>
     <path d="M 0 3 
C 0.795609 3 1.55874 2.683901 2.12132 2.12132 
C 2.683901 1.55874 3 0.795609 3 0 
C 3 -0.795609 2.683901 -1.55874 2.12132 -2.12132 
C 1.55874 -2.683901 0.795609 -3 0 -3 
C -0.795609 -3 -1.55874 -2.683901 -2.12132 -2.12132 
C -2.683901 -1.55874 -3 -0.795609 -3 0 
C -3 0.795609 -2.683901 1.55874 -2.12132 2.12132 
C -1.55874 2.683901 -0.795609 3 0 3 
z
" id="m72e9b692f8" style="stroke:#ff7f0e;"/>
    </defs>
    <g clip-path="url(#p16af50ce55)">
     <use style="fill:#ff7f0e;stroke:#ff7f0e;" x="398.487273" xlink:href="#m72e9b692f8" y="53.568"/>
    </g>
   </g>
   <g id="patch_2">
    <path clip-path="url(#p16af50ce55)" d="M 234.969972 175.210388 
L 237.350028 175.210388 
L 237.350028 173.845612 
L 234.969972 173.845612 
z
" style="fill:none;stroke:#ff0000;stroke-linejoin:miter;stroke-width:0.001;"/>
   </g>
   <g id="patch_3">
    <path clip-path="url(#p16af50ce55)" d="M 230.50245 179.817256 
L 241.81755 179.817256 
L 241.81755 169.238744 
L 230.50245 169.238744 
z
" style="fill:none;stroke:#ff0000;stroke-linejoin:miter;stroke-width:0.001;"/>
   </g>
   <g id="patch_4">
    <path clip-path="url(#p16af50ce55)" d="M 233.562428 176.285049 
L 238.757572 176.285049 
L 238.757572 172.770951 
L 233.562428 172.770951 
z
" style="fill:none;stroke:#ff0000;stroke-linejoin:miter;stroke-width:0.001;"/>
   </g>
   <g id="patch_5">
    <path clip-path="url(#p16af50ce55)" d="M 220.033479 187.709058 
L 252.286521 187.709058 
L 252.286521 161.346942 
L 220.033479 161.346942 
z
" style="fill:none;stroke:#ff0000;stroke-linejoin:miter;stroke-width:0.001;"/>
   </g>
   <g id="patch_6">
    <path clip-path="url(#p16af50ce55)" d="M 226.77327 179.416077 
L 245.54673 179.416077 
L 245.54673 169.639923 
L 226.77327 169.639923 
z
" style="fill:none;stroke:#ff0000;stroke-linejoin:miter;stroke-width:0.001;"/>
   </g>
   <g id="patch_7">
    <path clip-path="url(#p16af50ce55)" d="M 232.085946 177.661699 
L 240.234054 177.661699 
L 240.234054 171.394301 
L 232.085946 171.394301 
z
" style="fill:none;stroke:#ff0000;stroke-linejoin:miter;stroke-width:0.001;"/>
   </g>
   <g id="patch_8">
    <path clip-path="url(#p16af50ce55)" d="M 78.751736 240.506182 
L 393.568264 240.506182 
L 393.568264 108.549818 
L 78.751736 108.549818 
z
" style="fill:none;stroke:#ff0000;stroke-linejoin:miter;stroke-width:0.001;"/>
   </g>
  </g>
 </g>
 <defs>
  <clipPath id="p16af50ce55">
   <rect height="266.112" width="357.12" x="57.6" y="41.472"/>
  </clipPath>
 </defs>
</svg>
